<?xml version="1.0" encoding="iso-8859-1"?>
<!-- Uploaded to: SVG Repo, www.svgrepo.com, Generator: SVG Repo Mixer Tools -->
<svg version="1.1" id="Layer_1" xmlns="http://www.w3.org/2000/svg" xmlns:xlink="http://www.w3.org/1999/xlink" 
	 viewBox="0 0 512 512" xml:space="preserve">
<path style="fill:#AFE1ED;" d="M300.629,78.937L300.629,78.937h-89.256l0,0c0,34.309-10.313,67.825-29.602,96.198l-34.277,50.422
	v0.405c7.548,6.299,17.26,10.094,27.86,10.094h1.193c17.451,0,32.494-10.277,39.429-25.106
	c6.935,14.829,21.978,25.106,39.429,25.106h1.193c17.451,0,32.494-10.277,39.429-25.106c6.935,14.829,21.978,25.106,39.429,25.106
	h1.193c10.6,0,20.311-3.795,27.86-10.094v-0.405l-34.277-50.422C310.943,146.763,300.629,113.246,300.629,78.937z"/>
<path style="fill:#6FBBDC;" d="M335.455,236.055c-17.451,0-32.494-10.277-39.429-25.106c-6.935,14.829-21.978,25.106-39.429,25.106
	h-1.193c-17.451,0-32.494-10.277-39.429-25.106c-6.935,14.829-21.978,25.106-39.429,25.106h-1.193
	c-10.6,0-20.311-3.795-27.86-10.094v272.586h99.787h17.439h99.787V225.962c-7.548,6.299-17.26,10.094-27.86,10.094L335.455,236.055
	L335.455,236.055z"/>
<rect x="211.374" y="13.453" style="fill:#C97767;" width="89.26" height="65.484"/>
<polygon style="fill:#FFAB64;" points="147.494,305.249 147.494,397.363 247.281,397.363 264.72,397.363 364.508,397.363 
	364.508,305.249 "/>
<path d="M303.785,366.233c-0.873,0-1.749-0.094-2.623-0.269c-0.861-0.161-1.709-0.431-2.514-0.767
	c-0.809-0.336-1.589-0.753-2.327-1.238c-0.726-0.484-1.426-1.049-2.045-1.668c-0.619-0.619-1.185-1.305-1.668-2.045
	c-0.484-0.726-0.901-1.507-1.238-2.314c-0.336-0.821-0.592-1.668-0.767-2.516c-0.175-0.874-0.269-1.762-0.269-2.637
	c0-0.874,0.094-1.762,0.269-2.623c0.175-0.861,0.431-1.708,0.767-2.516c0.336-0.821,0.753-1.601,1.238-2.327
	c0.483-0.74,1.049-1.426,1.668-2.045c0.619-0.619,1.317-1.184,2.045-1.668c0.74-0.484,1.52-0.901,2.327-1.238
	c0.807-0.336,1.653-0.605,2.514-0.767c1.735-0.35,3.525-0.35,5.26,0c0.862,0.161,1.71,0.431,2.516,0.767
	c0.809,0.336,1.589,0.753,2.327,1.238c0.726,0.484,1.426,1.049,2.045,1.668c0.619,0.619,1.184,1.305,1.668,2.045
	c0.484,0.726,0.901,1.507,1.238,2.327c0.336,0.807,0.592,1.655,0.767,2.516c0.175,0.861,0.254,1.749,0.254,2.623
	s-0.081,1.762-0.254,2.637c-0.175,0.848-0.431,1.695-0.767,2.516c-0.336,0.807-0.753,1.587-1.238,2.314
	c-0.484,0.74-1.049,1.426-1.668,2.045c-0.619,0.619-1.317,1.184-2.045,1.668c-0.74,0.484-1.52,0.901-2.327,1.238
	c-0.807,0.336-1.653,0.605-2.516,0.767C305.549,366.139,304.673,366.233,303.785,366.233z"/>
<path d="M375.633,217.993l-34.277-50.42c-17.832-26.232-27.261-56.86-27.273-88.578c0-0.019,0.003-0.038,0.003-0.057V13.453
	c0-7.43-6.024-13.453-13.453-13.453h-89.266c-7.43,0-13.453,6.023-13.453,13.453v65.484c0,0.023,0.003,0.044,0.003,0.067
	c-0.013,31.714-9.443,62.34-27.273,88.569l-34.277,50.42c-1.516,2.231-2.327,4.866-2.327,7.563v0.405v79.288v92.114v101.184
	c0,7.43,6.023,13.453,13.453,13.453h217.015c7.429,0,13.453-6.023,13.453-13.453V225.962v-0.405
	C377.961,222.859,377.151,220.224,375.633,217.993z M160.945,366.234h102.487c7.429,0,13.453-6.023,13.453-13.453
	c0-7.43-6.024-13.453-13.453-13.453H160.945v-20.626h190.108v65.208H160.945V366.234z M160.945,291.796V247.65
	c0.12,0.031,0.242,0.052,0.362,0.082c0.9,0.23,1.807,0.435,2.717,0.62c0.272,0.055,0.542,0.11,0.815,0.163
	c1.051,0.198,2.104,0.374,3.165,0.513c0.102,0.013,0.204,0.022,0.307,0.034c0.977,0.122,1.959,0.214,2.942,0.285
	c0.281,0.02,0.561,0.039,0.844,0.055c1.082,0.062,2.165,0.105,3.253,0.105h1.193c14.894,0,28.98-5.9,39.429-15.896
	c1.306,1.25,2.669,2.435,4.083,3.553c0.708,0.56,1.427,1.102,2.159,1.626c9.517,6.822,21.085,10.717,33.187,10.717h1.193
	c14.892,0,28.982-5.9,39.429-15.896c10.449,9.997,24.536,15.896,39.429,15.896h1.195c1.088,0,2.173-0.043,3.254-0.105
	c0.28-0.016,0.56-0.035,0.839-0.055c0.989-0.071,1.976-0.164,2.957-0.287c0.097-0.012,0.195-0.019,0.291-0.032
	c1.064-0.139,2.122-0.316,3.174-0.514c0.27-0.051,0.539-0.106,0.809-0.161c0.909-0.184,1.813-0.39,2.711-0.619
	c0.124-0.031,0.249-0.052,0.371-0.085v44.146H160.945V291.796z M224.82,26.906h62.36v38.578h-62.36V26.906z M192.896,182.699
	c18.355-27.001,29.107-57.982,31.445-90.308h63.32c2.338,32.327,13.088,63.31,31.445,90.308l26.233,38.589
	c-0.178,0.054-0.352,0.117-0.533,0.167c-0.297,0.083-0.596,0.161-0.895,0.235c-0.499,0.125-1.001,0.234-1.505,0.334
	c-0.299,0.058-0.596,0.118-0.897,0.167c-0.544,0.089-1.091,0.157-1.639,0.217c-0.261,0.028-0.521,0.066-0.783,0.087
	c-0.81,0.066-1.622,0.108-2.439,0.108h-1.195c-11.619,0-22.313-6.811-27.242-17.353c-2.214-4.731-6.965-7.753-12.187-7.753
	c-5.224,0-9.974,3.023-12.187,7.754c-4.929,10.54-15.622,17.352-27.242,17.352h-1.193c-11.619,0-22.313-6.811-27.242-17.352
	c-2.213-4.731-6.963-7.754-12.187-7.754c-5.222,0-9.974,3.023-12.186,7.753c-4.931,10.542-15.624,17.353-27.244,17.353h-1.193
	c-0.817,0-1.63-0.04-2.439-0.108c-0.262-0.022-0.522-0.059-0.783-0.087c-0.548-0.059-1.095-0.126-1.637-0.217
	c-0.301-0.05-0.601-0.109-0.901-0.168c-0.502-0.098-1.002-0.209-1.497-0.332c-0.303-0.075-0.604-0.153-0.904-0.238
	c-0.178-0.05-0.351-0.113-0.527-0.165L192.896,182.699z M160.945,485.094v-74.278h190.109v74.278H160.945z"/>
</svg>