<?xml version="1.0" encoding="iso-8859-1"?>
<!-- Uploaded to: SVG Repo, www.svgrepo.com, Generator: SVG Repo Mixer Tools -->
<svg height="800px" width="800px" version="1.1" id="Layer_1" xmlns="http://www.w3.org/2000/svg" xmlns:xlink="http://www.w3.org/1999/xlink" 
	 viewBox="0 0 398.427 398.427" xml:space="preserve">
<g>
	<path style="fill:#997443;" d="M336.197,229.512c-22.636-80.071-93.713-141.711-179.982-141.711C69.939,87.801,0,147.969,0,234.243
		c0,76.559,69.939,76.199,156.215,76.199C242.484,310.443,361.323,318.394,336.197,229.512z"/>
	<g>
		<circle style="fill:#B3874F;" cx="81.442" cy="128.44" r="4.662"/>
		<circle style="fill:#B3874F;" cx="98.79" cy="113.109" r="4.66"/>
		<circle style="fill:#B3874F;" cx="129.723" cy="104.873" r="4.661"/>
		<circle style="fill:#B3874F;" cx="120.401" cy="123.779" r="4.66"/>
	</g>
	<g>
		<circle style="fill:#5A3C3D;" cx="241.162" cy="284.537" r="4.661"/>
		<circle style="fill:#5A3C3D;" cx="219.147" cy="298.206" r="4.661"/>
		<circle style="fill:#5A3C3D;" cx="199.213" cy="281.149" r="4.662"/>
		<circle style="fill:#5A3C3D;" cx="266.182" cy="290.581" r="4.662"/>
	</g>
	<g>
		<path style="fill:#F2D383;" d="M383.317,102.26c-4.913-8.512-15.802-11.43-24.315-6.516c-8.513,4.916-11.433,15.806-6.517,24.317
			l-44.052,25.433l12.719,22.039l44.056-25.437c4.917,8.513,15.804,11.43,24.316,6.517c8.511-4.914,11.431-15.801,6.516-24.316
			c-2.495-4.32-6.529-7.191-11.006-8.335C386.278,111.508,385.811,106.581,383.317,102.26z"/>
		<path style="fill:#B3874F;" d="M201.945,149.919c-29.715,17.158-39.899,55.159-22.741,84.879
			c17.158,29.716,55.158,39.899,84.874,22.74c63.482-36.648,86.121-86.435,70.951-112.706
			C319.86,118.558,265.427,113.272,201.945,149.919z"/>
		<g>
			<circle style="fill:#D9A460;" cx="199.213" cy="179.593" r="4.662"/>
			<circle style="fill:#D9A460;" cx="226.119" cy="155.259" r="4.661"/>
			<circle style="fill:#D9A460;" cx="255.219" cy="159.919" r="4.661"/>
			<circle style="fill:#D9A460;" cx="199.213" cy="215.688" r="4.662"/>
			<circle style="fill:#D9A460;" cx="221.459" cy="184.252" r="4.66"/>
		</g>
	</g>
	<g>
		<path style="fill:#B3874F;" d="M123.422,220.069L80.53,208.926l26.709-35.104c3.727-4.904,3.772-11.901-0.303-16.874
			c-4.763-5.819-13.345-6.675-19.166-1.909l-58.862,48.203c-3.131,2.58-5.697,6.077-7.149,10.184
			c-4.257,12.04,2.054,25.252,14.095,29.511c0,0,74.091,26.16,74.783,26.34c13.588,3.528,27.462-4.626,30.996-18.214
			C145.161,237.473,137.007,223.598,123.422,220.069z"/>
		<g>
			<circle style="fill:#D9A460;" cx="35.229" cy="220.349" r="4.66"/>
			<circle style="fill:#D9A460;" cx="44.978" cy="235.653" r="4.66"/>
			<circle style="fill:#D9A460;" cx="58.959" cy="223.677" r="4.66"/>
		</g>
	</g>
</g>
</svg>