<?xml version="1.0" encoding="iso-8859-1"?>
<!-- Uploaded to: SVG Repo, www.svgrepo.com, Generator: SVG Repo Mixer Tools -->
<svg height="800px" width="800px" version="1.1" id="Layer_1" xmlns="http://www.w3.org/2000/svg" xmlns:xlink="http://www.w3.org/1999/xlink" 
	 viewBox="0 0 512.001 512.001" xml:space="preserve">
<path style="fill:#C97767;" d="M325.007,357.96c-5.769,0-7.591,3.119-8.797,4.61c-14.182,17.562-35.878,28.801-60.209,28.801
	c-23.823,0-45.122-10.774-59.312-27.71c-1.534-1.831-3.008-5.7-8.437-5.7c0,0-54.715,0-74.316,0c-7.874,0-7.874,8.36-7.874,8.36
	l12.743,105.704c1.316,13.936,13.845,25.338,27.844,25.338h218.707c13.999,0,26.528-11.402,27.844-25.338l12.779-106.095
	c0,0,0-7.97-8.011-7.97C379.727,357.96,325.007,357.96,325.007,357.96z"/>
<path style="fill:#FFAB64;" d="M415.722,262.729c0,0-0.11,7.313-8.99,7.313c-21.768,0-82.742,0-82.742,0
	c-5.09,0-7.966-4.936-9.991-7.23c-14.174-16.052-34.899-26.181-57.996-26.181c-24.005,0-45.447,10.94-59.636,28.1
	c-1.414,1.711-4.042,5.313-9.47,5.313c0,0-60.992,0-83.14,0c-7.465,0-7.764-10.382-7.764-10.382l10.07,106.66
	c0,0,0-8.361,7.874-8.361c19.602,0,74.316,0,74.316,0c5.43,0,6.903,3.871,8.437,5.7c14.19,16.936,35.489,27.71,59.312,27.71
	c24.331,0,46.028-11.238,60.209-28.801c1.204-1.493,3.028-4.61,8.797-4.61c0,0,54.72,0,72.959,0c8.011,0,8.011,7.97,8.011,7.97
	L415.722,262.729z"/>
<polygon style="fill:#F1414F;" points="451.846,61.696 366.485,61.696 357.989,14.635 154.014,14.635 145.517,61.696 60.157,61.696 
	60.284,152.571 451.717,152.571 "/>
<path style="fill:#C97767;" d="M85.881,152.571l10.11,107.089c0,0,0.299,10.382,7.764,10.382c22.147,0,83.14,0,83.14,0
	c5.43,0,8.057-3.602,9.47-5.313c14.189-17.158,35.631-28.1,59.636-28.1c23.099,0,43.822,10.129,57.996,26.181
	c2.026,2.293,4.901,7.23,9.991,7.23c0,0,60.973,0,82.742,0c8.882,0,8.99-7.313,8.99-7.313l10.4-110.158H85.881V152.571z"/>
<path d="M462.202,51.355c-2.746-2.748-6.47-4.294-10.356-4.294h-73.132l-6.324-35.026C371.133,5.068,365.068,0,357.989,0H154.014
	c-7.079,0-13.144,5.068-14.403,12.035l-6.324,35.026H60.155c-3.886,0-7.61,1.545-10.356,4.294
	c-2.744,2.748-4.285,6.476-4.279,10.362l0.129,90.876c0.012,8.074,6.561,14.615,14.635,14.615h12.277l31.693,306.407
	c2.113,21.187,21.085,38.387,42.392,38.387h218.709c21.309,0,40.281-17.202,42.392-38.391l31.693-306.401h12.277
	c8.074,0,14.624-6.54,14.635-14.615l0.129-90.876C466.487,57.831,464.948,54.103,462.202,51.355z M145.517,76.331
	c7.079,0,13.144-5.068,14.403-12.035l6.324-35.026H345.76l6.324,35.026c1.257,6.966,7.322,12.035,14.403,12.035h70.706
	l-0.088,61.605h-10.981H85.881H74.9l-0.025-17.786h229.313c8.083,0,14.635-6.552,14.635-14.635s-6.552-14.635-14.635-14.635H74.833
	l-0.02-14.547h70.704V76.331z M186.895,284.677c1.235,0,2.394-0.1,3.512-0.249c0.859-0.116,1.692-0.259,2.482-0.446
	c0.067-0.016,0.14-0.026,0.208-0.042c1.105-0.274,2.132-0.622,3.107-1.008c0.127-0.05,0.263-0.094,0.388-0.145
	c0.31-0.129,0.599-0.274,0.896-0.411c0.221-0.102,0.454-0.199,0.667-0.307c0.345-0.174,0.669-0.359,0.995-0.543
	c0.146-0.082,0.303-0.16,0.446-0.243c0.211-0.124,0.402-0.255,0.604-0.382c0.241-0.151,0.49-0.3,0.72-0.455
	c0.044-0.029,0.082-0.061,0.126-0.091c0.373-0.256,0.736-0.514,1.079-0.776c0.007-0.006,0.015-0.012,0.022-0.018
	c2.664-2.034,4.395-4.153,5.311-5.275l0.187-0.228c8.537-10.324,19.951-17.488,32.59-20.763c1.551-0.402,3.119-0.752,4.704-1.035
	c2.487-0.443,5.008-0.754,7.561-0.894c1.162-0.064,2.33-0.097,3.502-0.097c17.971,0,35.111,7.739,47.019,21.224
	c0.19,0.218,0.388,0.479,0.606,0.754c2.708,3.42,9.05,11.433,20.363,11.433h74.96l-5.536,58.648h-68.405
	c-12.453,0-18.173,7.438-20.053,9.88l-0.13,0.17c-11.988,14.846-29.783,23.359-48.823,23.359c-1.158,0-2.309-0.032-3.458-0.095
	c-1.305-0.072-2.602-0.195-3.893-0.345c-8.704-1.023-17.024-3.849-24.48-8.25c-6.017-3.55-11.474-8.112-16.102-13.592l-0.199-0.284
	c-1.045-1.509-3.289-4.751-7.208-7.3c-3.049-1.982-7.111-3.545-12.411-3.545h-69.661l-5.538-58.648h73.842V284.677z
	 M378.667,470.276c-0.015,0.124-0.029,0.249-0.04,0.375c-0.607,6.435-6.81,12.078-13.273,12.078H146.648
	c-6.463,0-12.665-5.643-13.273-12.078c-0.012-0.126-0.025-0.25-0.04-0.376l-11.775-97.678h63.534
	c0.121,0.152,0.247,0.307,0.379,0.465c17.543,20.937,43.251,32.945,70.53,32.945c27.57,0,53.356-12.165,70.918-33.411h63.515
	L378.667,470.276z M401.712,255.407h-74.875c-0.092-0.117-0.181-0.228-0.262-0.331c-0.575-0.726-1.111-1.39-1.607-1.951
	c-16.377-18.547-39.495-29.677-64.041-30.997c-1.636-0.088-3.28-0.132-4.926-0.132c-5.157,0-10.258,0.427-15.256,1.263
	c-18.325,3.065-35.277,11.607-48.699,24.612c-0.692,0.672-1.354,1.382-2.028,2.077c-0.512,0.528-1.042,1.038-1.543,1.579
	c-1.161,1.256-2.29,2.547-3.387,3.872l-74.438,0.006h-0.363l-8.326-88.201h308.077L401.712,255.407z"/>
<path d="M348.1,120.155c-0.966,0-1.917-0.102-2.868-0.293c-0.937-0.19-1.859-0.468-2.737-0.834s-1.727-0.82-2.532-1.346
	c-0.79-0.527-1.537-1.142-2.225-1.815c-0.673-0.673-1.273-1.434-1.815-2.225c-0.527-0.805-0.981-1.654-1.346-2.532
	s-0.644-1.8-0.834-2.737c-0.19-0.937-0.278-1.903-0.278-2.854c0-0.966,0.088-1.917,0.278-2.868c0.19-0.937,0.468-1.844,0.834-2.737
	c0.366-0.878,0.82-1.727,1.346-2.517c0.542-0.805,1.142-1.551,1.815-2.225c0.688-0.688,1.434-1.288,2.225-1.829
	c0.805-0.527,1.654-0.981,2.532-1.346c0.878-0.366,1.8-0.644,2.737-0.834c1.888-0.381,3.834-0.381,5.722,0
	c0.937,0.19,1.859,0.468,2.737,0.834s1.727,0.82,2.532,1.346c0.79,0.542,1.537,1.142,2.225,1.829
	c0.673,0.673,1.273,1.42,1.815,2.225c0.527,0.79,0.981,1.639,1.346,2.517c0.366,0.893,0.644,1.8,0.834,2.737
	c0.19,0.951,0.278,1.903,0.278,2.868c0,0.951-0.088,1.917-0.278,2.854s-0.468,1.859-0.834,2.737
	c-0.366,0.878-0.82,1.727-1.346,2.532c-0.541,0.79-1.142,1.551-1.815,2.225c-0.688,0.673-1.434,1.288-2.225,1.815
	c-0.805,0.527-1.654,0.981-2.532,1.346c-0.878,0.366-1.8,0.644-2.737,0.834C350.003,120.053,349.051,120.155,348.1,120.155z"/>
</svg>