<?xml version="1.0" encoding="iso-8859-1"?>
<!-- Uploaded to: SVG Repo, www.svgrepo.com, Generator: SVG Repo Mixer Tools -->
<svg height="800px" width="800px" version="1.1" id="Layer_1" xmlns="http://www.w3.org/2000/svg" xmlns:xlink="http://www.w3.org/1999/xlink" 
	 viewBox="0 0 348.682 348.682" xml:space="preserve">
<g>
	<polygon style="fill:#FEDD3D;" points="249.479,0 274.588,0 231.047,124.511 205.938,124.511 	"/>
	<polygon style="fill:#8CD5EF;" points="288.111,72.511 60.572,72.511 94.926,348.682 253.759,348.682 	"/>
	<polygon style="fill:#C4636A;" points="117.009,323.682 88.875,97.511 259.809,97.511 231.676,323.682 	"/>
	<polygon style="fill:#0091B8;" points="91.764,323.259 94.926,348.682 253.759,348.682 256.921,323.259 	"/>
	<path style="fill:#FF8189;" d="M228.003,57.59c-8.279,0-15.851,3.013-21.693,7.995c-3.535-5.226-9.516-8.661-16.3-8.661
		c-4.442,0-8.526,1.49-11.818,3.974c-4.862-4.138-11.16-6.641-18.045-6.641c-7.282,0-13.908,2.796-18.872,7.369
		c-5.733-4.606-13.012-7.369-20.938-7.369c-18.48,0-33.461,14.98-33.461,33.46c0,18.481,14.981,33.461,33.461,33.461
		c6.206,0,12.014-1.696,16.995-4.64c4.513,4.003,10.449,6.438,16.956,6.438c8.506,0,16.036-4.157,20.685-10.546
		c4.456,5.004,10.945,8.158,18.173,8.158c4.908,0,9.475-1.459,13.297-3.959c5.824,4.914,13.345,7.881,21.562,7.881
		c18.479,0,33.46-14.981,33.46-33.461C261.463,72.57,246.482,57.59,228.003,57.59z"/>
	<g>
		<circle style="fill:#FF8189;" cx="132.283" cy="167.283" r="5.973"/>
		<circle style="fill:#FF8189;" cx="153.795" cy="286.44" r="5.973"/>
		<circle style="fill:#FF8189;" cx="126.309" cy="238.616" r="5.973"/>
		<circle style="fill:#FF8189;" cx="179.854" cy="206.562" r="5.973"/>
		<circle style="fill:#FF8189;" cx="223.451" cy="144.604" r="5.973"/>
		<circle style="fill:#FF8189;" cx="209.674" cy="274.493" r="5.973"/>
	</g>
</g>
</svg>