<?xml version="1.0" encoding="iso-8859-1"?>
<!-- Uploaded to: SVG Repo, www.svgrepo.com, Generator: SVG Repo Mixer Tools -->
<svg height="800px" width="800px" version="1.1" id="Layer_1" xmlns="http://www.w3.org/2000/svg" xmlns:xlink="http://www.w3.org/1999/xlink" 
	 viewBox="0 0 512 512" xml:space="preserve">
<path style="fill:#EAEAEA;" d="M100.827,227.784c-7.109-0.195-70.098-2.943-92.891-39.091c-13.027-20.66-7.614-43.329-0.778-58.707
	l5.689-12.799l13.351,4.233c46.335,14.689,102.833,32.367,103.398,32.545L100.827,227.784z"/>
<path style="fill:#D37B93;" d="M101.704,196.481c-13.718-0.411-55.525-5.796-67.295-24.515c-1.209-1.924-4.19-6.662-2.765-15.976
	c42.766,13.518,88.096,27.703,88.602,27.86L101.704,196.481z"/>
<path style="fill:#AEAEAF;" d="M411.173,227.784c7.109-0.195,70.098-2.943,92.891-39.091c13.027-20.66,7.614-43.329,0.778-58.707
	l-5.689-12.799l-13.351,4.233c-46.335,14.689-102.833,32.367-103.398,32.545L411.173,227.784z"/>
<path style="fill:#9D5B6E;" d="M410.296,196.481c13.718-0.411,55.525-5.796,67.295-24.515c1.209-1.924,4.19-6.662,2.765-15.976
	c-42.766,13.518-88.096,27.703-88.602,27.86L410.296,196.481z"/>
<path style="fill:#EAEAEA;" d="M135.982,139.21c-33.432,21.373-50.384,54.998-50.384,99.939c0,38.765,8.941,62.565,20.261,92.695
	c3.779,10.058,7.686,20.459,11.734,32.621c10.485,31.51,23.161,63.999,44.723,88.154c23.394,26.208,53.939,38.949,93.381,38.949
	s69.987-12.74,93.381-38.949c21.563-24.157,34.238-56.645,44.723-88.154c4.048-12.162,7.955-22.563,11.734-32.621
	c11.32-30.13,20.261-53.93,20.261-92.695c0-44.021-16.288-77.213-48.414-98.654L135.982,139.21z"/>
<path style="fill:#AEAEAF;" d="M256.289,236.264c-13.642,0-26.442-4.793-36.497-13.433c-13.401,3.552-27.813,2.07-40.324-4.443
	c-15.742-8.182-26.37-22.871-29.379-39.83c-18.513-9.377-30.732-28.566-30.789-49.933c-0.071-21.406,12.065-40.687,30.568-50.161
	c2.941-17.006,13.537-31.761,29.294-40.006c12.511-6.546,26.933-8.056,40.338-4.527c10.055-8.672,22.855-13.489,36.499-13.5
	c0.018,0,0.037,0,0.054,0c13.612,0,26.386,4.777,36.437,13.395c13.386-3.556,27.793-2.094,40.305,4.392
	c15.737,8.153,26.381,22.817,29.426,39.761c18.478,9.313,30.742,28.411,30.914,49.706v0.663c0,21.401-12.201,40.651-30.737,50.073
	c-3.067,16.871-13.817,31.836-29.31,39.896c-12.495,6.525-26.905,8.025-40.307,4.484
	C282.723,231.461,269.923,236.264,256.289,236.264z"/>
<path style="fill:#5B5B5F;" d="M240.039,490.846c5.058,0.477,10.272,0.723,15.658,0.723c5.385,0,10.599-0.246,15.658-0.723v-56.537
	h-31.315L240.039,490.846L240.039,490.846z"/>
<path style="fill:#D37B93;" d="M255.697,443.119c-15.793,0-29.91-12.406-35.247-17.74c-5.357-5.354-17.819-19.54-17.819-35.57
	c0-13.114,6.531-23.084,18.391-28.074c7.907-3.327,17.952-4.683,34.674-4.683c16.722,0,26.768,1.356,34.674,4.683
	c11.86,4.991,18.391,14.96,18.391,28.074c0,16.03-12.461,30.215-17.819,35.57C285.608,430.712,271.49,443.119,255.697,443.119z"/>
<path style="fill:#AEAEAF;" d="M255.697,491.569c39.442,0,69.987-12.74,93.381-38.949c21.563-24.157,34.238-56.645,44.723-88.154
	c4.048-12.162,7.955-22.563,11.734-32.621c11.32-30.13,20.261-53.93,20.261-92.695c0-44.021-16.288-77.213-48.414-98.654
	l-121.685-0.648L255.697,491.569z"/>
<path style="fill:#818183;" d="M256.289,236.264c0-26.86-0.288-192.781-0.288-215.833c0.018,0,0.037,0,0.054,0
	c13.612,0,26.386,4.777,36.437,13.395c13.386-3.556,27.793-2.094,40.305,4.392c15.737,8.153,26.381,22.817,29.426,39.761
	c18.478,9.313,30.742,28.411,30.914,49.706v0.663c0,21.401-12.201,40.651-30.737,50.073c-3.067,16.871-13.817,31.836-29.31,39.896
	c-12.495,6.525-26.905,8.025-40.307,4.484C282.723,231.461,269.923,236.264,256.289,236.264z"/>
<path style="fill:#434347;" d="M255.697,434.309v57.259l0,0c5.385,0,10.599-0.246,15.658-0.723v-56.537h-15.658V434.309z"/>
<path style="fill:#9D5B6E;" d="M255.697,443.119c0-20.438,0-66.367,0-86.067c16.722,0,26.768,1.356,34.674,4.683
	c11.86,4.991,18.391,14.96,18.391,28.074c0,16.03-12.461,30.215-17.819,35.57C285.608,430.712,271.49,443.119,255.697,443.119z"/>
<g>
	<path style="fill:#333333;" d="M183.038,272.736c0-11.501,9.219-20.814,20.548-20.814c11.343,0,20.562,9.314,20.562,20.814
		c0,11.499-9.218,20.822-20.562,20.822C192.257,293.557,183.038,284.235,183.038,272.736z"/>
	<path style="fill:#333333;" d="M328.355,272.736c0-11.586-9.279-20.977-20.704-20.977c-11.438,0-20.717,9.391-20.717,20.977
		s9.279,20.977,20.717,20.977C319.077,293.713,328.355,284.322,328.355,272.736z"/>
</g>
</svg>