<?xml version="1.0" encoding="iso-8859-1"?>
<!-- Uploaded to: SVG Repo, www.svgrepo.com, Generator: SVG Repo Mixer Tools -->
<svg version="1.1" id="Layer_1" xmlns="http://www.w3.org/2000/svg" xmlns:xlink="http://www.w3.org/1999/xlink" 
	 viewBox="0 0 512 512" xml:space="preserve">
<g>
	<path style="fill:#E95353;" d="M459.029,142.01l0.022-0.065c0.885-2.604-0.222-5.468-2.629-6.799
		c-2.406-1.333-5.421-0.75-7.158,1.382l-14.025,17.214c-1.605,1.97-1.707,4.765-0.25,6.847c1.457,2.082,4.119,2.94,6.52,2.109
		v-0.001l10.338,29.758c0.496,1.426,1.538,2.597,2.898,3.253c0.779,0.375,1.622,0.565,2.47,0.565c0.635,0,1.269-0.107,1.88-0.319
		c8.158-2.861,34.798-13.253,35.089-26.914C494.382,159.736,482.561,150.653,459.029,142.01z"/>
	<path style="fill:#E95353;" d="M62.738,136.529c-1.738-2.133-4.753-2.717-7.159-1.382c-2.405,1.332-3.512,4.195-2.629,6.799
		l0.023,0.065c-23.536,8.643-35.357,17.729-35.156,27.037c0.3,13.689,26.936,24.061,35.094,26.913
		c0.608,0.214,1.243,0.318,1.875,0.318c0.848,0,1.693-0.19,2.471-0.566c1.359-0.656,2.401-1.825,2.897-3.252l10.34-29.761v0.001
		c0.65,0.224,1.318,0.328,1.978,0.313c3.097-0.048,5.592-2.574,5.592-5.681c0-1.523-0.599-2.905-1.574-3.924L62.738,136.529z"/>
</g>
<path style="opacity:0.15;fill:#202020;enable-background:new    ;" d="M62.738,136.529c-1.738-2.133-4.753-2.717-7.159-1.382
	c-2.405,1.332-3.512,4.195-2.629,6.799l0.023,0.065c-23.536,8.643-35.357,17.729-35.156,27.037
	c0.3,13.689,26.936,24.061,35.094,26.913c0.608,0.214,1.243,0.318,1.875,0.318c0.848,0,1.693-0.19,2.471-0.566
	c1.359-0.656,2.401-1.825,2.897-3.252l10.34-29.761v0.001c0.65,0.224,1.318,0.328,1.978,0.313c3.097-0.048,5.592-2.574,5.592-5.681
	c0-1.523-0.599-2.905-1.574-3.924L62.738,136.529z"/>
<g>
	<path style="fill:#DCE0E2;" d="M287.262,215.944h-65.179c-14.968,0-27.145-12.178-27.145-27.145V125.79
		c0-4.708,3.816-8.524,8.524-8.524c4.708,0,8.524,3.815,8.524,8.524v63.008c0,5.568,4.53,10.098,10.098,10.098h65.18
		c5.568,0,10.098-4.529,10.098-10.098V125.79c0-4.708,3.816-8.524,8.524-8.524c4.708,0,8.524,3.815,8.524,8.524v63.008
		C314.407,203.766,302.229,215.944,287.262,215.944z"/>
	<path style="fill:#DCE0E2;" d="M254.671,342.094c-4.707,0-8.524-3.815-8.524-8.524V115.512c0-4.708,3.816-8.524,8.524-8.524
		c4.708,0,8.524,3.815,8.524,8.524v218.059C263.195,338.278,259.38,342.094,254.671,342.094z"/>
</g>
<path style="fill:#E95353;" d="M255.568,0C177.02,0,103.094,31.291,57.821,83.703c-20.033,23.189-17.471,58.225,5.718,78.257
	c23.191,20.031,58.227,17.468,78.255-5.719c24.122-27.926,67.719-45.276,113.773-45.276c46.056,0,89.652,17.35,113.775,45.276
	c20.031,23.188,55.066,25.748,78.255,5.719c23.189-20.032,25.748-55.068,5.718-78.257C408.046,31.291,334.12,0,255.568,0z"/>
<path style="opacity:0.15;fill:#202020;enable-background:new    ;" d="M81.723,161.96c-23.189-20.032-25.751-55.068-5.718-78.257
	C119.508,33.341,189.471,2.497,264.566,0.16C261.573,0.067,258.576,0,255.568,0C177.02,0,103.094,31.291,57.821,83.703
	c-20.033,23.189-17.471,58.225,5.718,78.257c12.974,11.206,29.653,15.321,45.34,12.73C99.153,173.082,89.731,168.877,81.723,161.96z
	"/>
<path style="fill:#DCE0E2;" d="M237.341,334.707v15.004v33.865V495.86c0,8.914,7.228,16.14,16.14,16.14h2.382
	c8.915,0,16.139-7.227,16.139-16.14V383.576v-33.865v-15.004H237.341z"/>
<rect x="237.346" y="334.708" style="fill:#C0C9CC;" width="34.662" height="39.209"/>
<g>
	<path style="fill:#F48484;" d="M100.419,104.771c-2.15,0-4.298-0.807-5.956-2.429c-3.367-3.291-3.43-8.687-0.138-12.053
		c2.955-3.023,6.067-5.994,9.252-8.832c3.516-3.13,8.903-2.82,12.034,0.694c3.131,3.516,2.82,8.903-0.694,12.035
		c-2.894,2.576-5.719,5.274-8.401,8.018C104.845,103.913,102.633,104.771,100.419,104.771z"/>
	<path style="fill:#F48484;" d="M128.089,81.643c-2.721,0-5.393-1.299-7.043-3.713c-2.659-3.887-1.663-9.191,2.223-11.848
		c37.121-25.389,84.108-39.372,132.3-39.372c17.951,0,35.854,1.931,53.212,5.739c4.598,1.009,7.508,5.555,6.5,10.153
		s-5.554,7.504-10.152,6.5c-16.162-3.546-32.836-5.344-49.559-5.344c-44.794,0-88.36,12.925-122.676,36.394
		C131.42,81.16,129.745,81.643,128.089,81.643z"/>
</g>
</svg>