<?xml version="1.0" encoding="iso-8859-1"?>
<!-- Uploaded to: SVG Repo, www.svgrepo.com, Generator: SVG Repo Mixer Tools -->
<svg height="800px" width="800px" version="1.1" id="Layer_1" xmlns="http://www.w3.org/2000/svg" xmlns:xlink="http://www.w3.org/1999/xlink" 
	 viewBox="0 0 391.836 391.836" xml:space="preserve">
<g>
	<g>
		<path style="fill:#F2D383;" d="M192.082,163.102c0,0,0.223-0.721,0.686-2.046c0.48-1.316,1.128-3.277,2.063-5.712
			c1.838-4.886,4.61-11.779,8.219-19.89c3.604-8.113,8.043-17.443,13.085-27.274c1.239-2.47,2.555-4.95,3.885-7.46
			c1.32-2.517,2.668-5.057,4.073-7.59c2.752-5.102,5.674-10.21,8.58-15.328c2.979-5.076,5.932-10.167,8.975-15.1
			c0.753-1.238,1.503-2.471,2.249-3.697c0.765-1.216,1.526-2.426,2.282-3.629c1.515-2.403,2.994-4.788,4.516-7.096
			c2.99-4.645,5.965-9.086,8.824-13.275c2.871-4.183,5.646-8.102,8.253-11.693c2.618-3.586,5.063-6.847,7.278-9.709
			c2.217-2.861,4.188-5.334,5.849-7.348c1.643-2.025,3.019-3.566,3.92-4.639c0.915-1.063,1.43-1.616,1.43-1.616
			s-0.222,0.722-0.685,2.048c-0.477,1.316-1.125,3.279-2.057,5.714c-0.914,2.446-2.07,5.389-3.44,8.739
			c-1.371,3.35-2.973,7.098-4.768,11.157c-1.807,4.054-3.815,8.417-6.001,12.994c-2.198,4.571-4.557,9.368-7.085,14.28
			c-1.237,2.471-2.563,4.944-3.887,7.458c-0.664,1.256-1.331,2.521-2.002,3.79c-0.688,1.26-1.382,2.525-2.077,3.797
			c-2.751,5.102-5.682,10.205-8.59,15.322c-2.98,5.076-5.942,10.161-8.984,15.094c-1.491,2.484-3.017,4.922-4.535,7.323
			c-1.51,2.407-3,4.786-4.518,7.095c-5.993,9.281-11.854,17.791-17.078,24.969c-5.22,7.18-9.804,13.028-13.116,17.063
			c-1.641,2.025-3.016,3.568-3.915,4.642C192.595,162.548,192.082,163.102,192.082,163.102z"/>
		<path style="fill:#D9A460;" d="M220.444,99.915c-0.142,0.268-0.286,0.537-0.426,0.805c-1.33,2.51-2.645,4.99-3.885,7.46
			c-5.042,9.831-9.481,19.161-13.085,27.274c-3.608,8.11-6.381,15.004-8.219,19.89c-0.935,2.435-1.582,4.395-2.063,5.712
			c-0.463,1.325-0.686,2.046-0.686,2.046s0.513-0.554,1.429-1.617c0.899-1.073,2.274-2.616,3.915-4.642
			c3.313-4.034,7.896-9.883,13.116-17.063c5.225-7.178,11.085-15.688,17.078-24.969c1.518-2.309,3.009-4.688,4.518-7.095
			c0.378-0.599,0.757-1.207,1.136-1.811C229.45,103.051,225.093,101.019,220.444,99.915z"/>
		<g>
			<path style="fill:#997443;" d="M264.475,174.823c1.241-2.983,1.929-6.255,1.929-9.688c0-9.566-5.322-17.889-13.167-22.169
				c-0.247-12.326-9.324-22.48-21.169-24.395c-4.622-5.857-11.778-9.621-19.818-9.621c-1.791,0-3.538,0.189-5.224,0.544
				c-4.623-5.196-11.357-8.474-18.86-8.474c-7.819,0-14.808,3.557-19.438,9.14c-2.436-0.783-5.031-1.21-7.728-1.21
				c-12.2,0-22.378,8.656-24.728,20.162c-11.24,2.55-19.635,12.594-19.635,24.606c0,2.801,0.463,5.492,1.305,8.01
				c-1.065,3.694-1.849,7.506-2.33,11.414c-3.193,4.227-5.089,9.489-5.089,15.196c0,6.356,2.355,12.158,6.232,16.596
				c-0.076,0.797-0.118,1.604-0.118,2.42c0,10.161,6.007,18.913,14.66,22.914c3.21,9.841,12.299,17.018,23.121,17.386
				c5.555,2.944,11.529,5.193,17.81,6.65c4.155,3.01,9.261,4.788,14.783,4.788c4.24,0,8.233-1.051,11.741-2.897
				c2.781,1.054,5.794,1.636,8.944,1.636c9.013,0,16.918-4.729,21.383-11.837c13.442-0.56,24.17-11.63,24.17-25.211
				c0-0.583-0.026-1.16-0.065-1.733c1.901-3.31,3.556-6.775,4.935-10.382c6.236-4.595,10.285-11.987,10.285-20.329
				C268.403,183.365,266.959,178.731,264.475,174.823z"/>
			<g>
				<circle style="fill:#5A3C3D;" cx="155.291" cy="228.147" r="5.708"/>
				<circle style="fill:#5A3C3D;" cx="188.165" cy="246.022" r="5.708"/>
				<circle style="fill:#5A3C3D;" cx="179.165" cy="228.147" r="5.708"/>
				<circle style="fill:#5A3C3D;" cx="243.165" cy="201.647" r="5.708"/>
			</g>
			<g>
				<circle style="fill:#B3874F;" cx="147.583" cy="143.481" r="5.708"/>
				<circle style="fill:#B3874F;" cx="171.457" cy="149.189" r="5.708"/>
				<circle style="fill:#B3874F;" cx="171.457" cy="124.26" r="5.708"/>
				<circle style="fill:#B3874F;" cx="192.719" cy="134.189" r="5.708"/>
			</g>
		</g>
	</g>
	<g>
		<path style="fill:#997443;" d="M346.661,307.567c1.241-2.983,1.929-6.255,1.929-9.688c0-9.566-5.322-17.889-13.167-22.169
			c-0.247-12.326-9.324-22.481-21.169-24.395c-4.622-5.858-11.778-9.621-19.818-9.621c-1.791,0-3.538,0.189-5.224,0.544
			c-4.623-5.196-11.358-8.474-18.86-8.474c-7.819,0-14.808,3.557-19.438,9.14c-2.436-0.783-5.031-1.21-7.729-1.21
			c-12.2,0-22.378,8.656-24.728,20.162c-11.24,2.55-19.635,12.594-19.635,24.606c0,2.801,0.463,5.492,1.305,8.01
			c-1.065,3.694-1.849,7.506-2.33,11.414c-3.193,4.227-5.089,9.489-5.089,15.196c0,6.357,2.354,12.158,6.232,16.596
			c-0.076,0.797-0.118,1.604-0.118,2.42c0,10.161,6.007,18.913,14.66,22.914c3.21,9.841,12.299,17.018,23.121,17.386
			c5.555,2.944,11.529,5.193,17.81,6.65c4.155,3.01,9.261,4.788,14.783,4.788c4.24,0,8.233-1.051,11.741-2.897
			c2.781,1.054,5.794,1.636,8.944,1.636c9.013,0,16.918-4.729,21.383-11.837c13.442-0.56,24.17-11.63,24.17-25.211
			c0-0.583-0.026-1.16-0.065-1.733c1.901-3.31,3.556-6.775,4.935-10.382c6.236-4.595,10.285-11.987,10.285-20.329
			C350.59,316.109,349.146,311.475,346.661,307.567z"/>
		<g>
			<circle style="fill:#5A3C3D;" cx="237.478" cy="360.892" r="5.708"/>
			<circle style="fill:#5A3C3D;" cx="270.352" cy="378.767" r="5.708"/>
			<circle style="fill:#5A3C3D;" cx="261.352" cy="360.892" r="5.708"/>
			<circle style="fill:#5A3C3D;" cx="325.352" cy="334.392" r="5.708"/>
		</g>
		<g>
			<circle style="fill:#B3874F;" cx="229.77" cy="276.226" r="5.708"/>
			<circle style="fill:#B3874F;" cx="253.644" cy="281.934" r="5.708"/>
			<circle style="fill:#B3874F;" cx="253.644" cy="257.004" r="5.708"/>
			<circle style="fill:#B3874F;" cx="274.905" cy="266.934" r="5.708"/>
		</g>
	</g>
	<g>
		<path style="fill:#997443;" d="M195.2,307.567c1.241-2.983,1.929-6.255,1.929-9.688c0-9.566-5.322-17.889-13.167-22.169
			c-0.247-12.326-9.324-22.481-21.169-24.395c-4.622-5.858-11.778-9.621-19.818-9.621c-1.791,0-3.538,0.189-5.224,0.544
			c-4.623-5.196-11.357-8.474-18.86-8.474c-7.819,0-14.808,3.557-19.438,9.14c-2.436-0.783-5.031-1.21-7.729-1.21
			c-12.2,0-22.378,8.656-24.728,20.162c-11.24,2.55-19.635,12.594-19.635,24.606c0,2.801,0.463,5.492,1.305,8.01
			c-1.065,3.694-1.849,7.506-2.33,11.414c-3.193,4.227-5.089,9.489-5.089,15.196c0,6.357,2.354,12.158,6.232,16.596
			c-0.076,0.797-0.118,1.604-0.118,2.42c0,10.161,6.007,18.913,14.66,22.914c3.21,9.841,12.299,17.018,23.121,17.386
			c5.555,2.944,11.529,5.193,17.81,6.65c4.155,3.01,9.261,4.788,14.783,4.788c4.24,0,8.233-1.051,11.741-2.897
			c2.781,1.054,5.794,1.636,8.944,1.636c9.013,0,16.918-4.729,21.383-11.837c13.442-0.56,24.17-11.63,24.17-25.211
			c0-0.583-0.026-1.16-0.065-1.733c1.901-3.31,3.556-6.775,4.935-10.382c6.236-4.595,10.285-11.987,10.285-20.329
			C199.129,316.109,197.684,311.475,195.2,307.567z"/>
		<g>
			<circle style="fill:#5A3C3D;" cx="86.017" cy="360.892" r="5.708"/>
			<circle style="fill:#5A3C3D;" cx="118.891" cy="378.767" r="5.708"/>
			<circle style="fill:#5A3C3D;" cx="109.891" cy="360.892" r="5.708"/>
			<circle style="fill:#5A3C3D;" cx="173.891" cy="334.392" r="5.708"/>
		</g>
		<g>
			<circle style="fill:#B3874F;" cx="78.309" cy="276.226" r="5.708"/>
			<circle style="fill:#B3874F;" cx="102.183" cy="281.934" r="5.708"/>
			<circle style="fill:#B3874F;" cx="102.183" cy="257.004" r="5.708"/>
			<circle style="fill:#B3874F;" cx="123.444" cy="266.934" r="5.708"/>
		</g>
	</g>
	<path style="fill:#00783E;" d="M294.549,262.914c18.658,18.658,50.676,16.892,50.676,16.892s1.766-32.018-16.892-50.676
		c-18.658-18.657-50.675-16.892-50.675-16.892S275.892,244.257,294.549,262.914z"/>
</g>
</svg>